<?xml version="1.0" encoding="UTF-8" standalone="no"?>
<!-- Created with Inkscape (http://www.inkscape.org/) -->

<svg
   xmlns:dc="http://purl.org/dc/elements/1.1/"
   xmlns:cc="http://creativecommons.org/ns#"
   xmlns:rdf="http://www.w3.org/1999/02/22-rdf-syntax-ns#"
   xmlns:svg="http://www.w3.org/2000/svg"
   xmlns="http://www.w3.org/2000/svg"
   xmlns:sodipodi="http://sodipodi.sourceforge.net/DTD/sodipodi-0.dtd"
   xmlns:inkscape="http://www.inkscape.org/namespaces/inkscape"
   width="3.5459435mm"
   height="3.4627726mm"
   viewBox="0 0 3.5459435 3.4627726"
   version="1.1"
   id="svg8"
   inkscape:version="0.92.3 (2405546, 2018-03-11)"
   sodipodi:docname="circle.svg">
  <defs
     id="defs2" />
  <sodipodi:namedview
     id="base"
     pagecolor="#ffffff"
     bordercolor="#666666"
     borderopacity="1.0"
     inkscape:pageopacity="0.0"
     inkscape:pageshadow="2"
     inkscape:zoom="5.12"
     inkscape:cx="91.904322"
     inkscape:cy="-5.4832013"
     inkscape:document-units="mm"
     inkscape:current-layer="layer1"
     showgrid="false"
     inkscape:window-width="1920"
     inkscape:window-height="1137"
     inkscape:window-x="1358"
     inkscape:window-y="-8"
     inkscape:window-maximized="1" />
  <metadata
     id="metadata5">
    <rdf:RDF>
      <cc:Work
         rdf:about="">
        <dc:format>image/svg+xml</dc:format>
        <dc:type
           rdf:resource="http://purl.org/dc/dcmitype/StillImage" />
        <dc:title></dc:title>
      </cc:Work>
    </rdf:RDF>
  </metadata>
  <g
     inkscape:label="Layer 1"
     inkscape:groupmode="layer"
     id="layer1"
     transform="translate(-13.481736,-14.493993)">
    <path
       style="fill:#0bb5ff;fill-opacity:1;stroke-width:0.01297631"
       d="m 13.496238,15.944007 c 0.09876,-0.546162 0.443265,-1.008332 0.940695,-1.26191 0.140051,-0.07142 0.308349,-0.129911 0.471081,-0.163769 0.157929,-0.03286 0.53894,-0.03239 0.696001,0.0011 0.720806,0.152841 1.261741,0.691267 1.399179,1.392659 0.03224,0.164493 0.03268,0.463463 0.0011,0.621431 -0.07202,0.358194 -0.238039,0.665634 -0.49485,0.916392 -0.253187,0.247216 -0.547623,0.401816 -0.909325,0.477456 -0.174924,0.03658 -0.496169,0.03961 -0.669196,0.0058 -0.477936,-0.09205 -0.892244,-0.360454 -1.157933,-0.750141 -0.129417,-0.18981 -0.211279,-0.378373 -0.263888,-0.607856 -0.02979,-0.1299 -0.03713,-0.496226 -0.01268,-0.631485 z"
       id="path3715"
       inkscape:connector-curvature="0" />
  </g>
</svg>
